<?xml version="1.0" encoding="UTF-8"?>
<svg id="Design" xmlns="http://www.w3.org/2000/svg" xmlns:xlink="http://www.w3.org/1999/xlink" viewBox="0 0 1920 399.9555">
  <defs>
    <style>
      .cls-1 {
        fill: url(#New_Gradient_Swatch_3-9);
      }

      .cls-1, .cls-2, .cls-3, .cls-4, .cls-5, .cls-6, .cls-7 {
        stroke-width: 0px;
      }

      .cls-2 {
        fill: url(#New_Gradient_Swatch_3-8);
      }

      .cls-3 {
        fill: url(#New_Gradient_Swatch_3-7);
      }

      .cls-4 {
        fill: url(#New_Gradient_Swatch_3-6);
      }

      .cls-5 {
        fill: url(#New_Gradient_Swatch_3-5);
      }

      .cls-8 {
        stroke: url(#New_Gradient_Swatch_3);
      }

      .cls-8, .cls-9, .cls-10, .cls-11 {
        fill: none;
        stroke-miterlimit: 10;
        stroke-width: 2px;
      }

      .cls-6 {
        fill: #817f7f;
      }

      .cls-7 {
        fill: blue;
      }

      .cls-9 {
        stroke: url(#New_Gradient_Swatch_3-3);
      }

      .cls-10 {
        stroke: url(#New_Gradient_Swatch_3-4);
      }

      .cls-11 {
        stroke: url(#New_Gradient_Swatch_3-2);
      }
    </style>
    <linearGradient id="New_Gradient_Swatch_3" data-name="New Gradient Swatch 3" x1="1389.4559" y1="51.1111" x2="1455.8534" y2="51.1111" gradientTransform="translate(-13.2553 249.7165) scale(1 -1)" gradientUnits="userSpaceOnUse">
      <stop offset=".0005" stop-color="blue"/>
      <stop offset=".5" stop-color="#8200de"/>
      <stop offset="1" stop-color="#ff6432"/>
    </linearGradient>
    <linearGradient id="New_Gradient_Swatch_3-2" data-name="New Gradient Swatch 3" x1="1077.0181" y1="198.3647" x2="1144.1287" y2="198.3647" gradientTransform="matrix(1,0,0,1,0,0)" xlink:href="#New_Gradient_Swatch_3"/>
    <linearGradient id="New_Gradient_Swatch_3-3" data-name="New Gradient Swatch 3" x1="6143.5596" y1="196.8827" x2="6209.5755" y2="196.8827" gradientTransform="translate(6986.4892) rotate(-180) scale(1 -1)" xlink:href="#New_Gradient_Swatch_3"/>
    <linearGradient id="New_Gradient_Swatch_3-4" data-name="New Gradient Swatch 3" x1="5843.5995" y1="49.6983" x2="5909.7172" y2="49.6983" gradientTransform="translate(6386.8174 246.8908) rotate(-180)" xlink:href="#New_Gradient_Swatch_3"/>
    <linearGradient id="New_Gradient_Swatch_3-5" data-name="New Gradient Swatch 3" x1="271.6115" y1="230.411" x2="448.3884" y2="53.6341" gradientTransform="matrix(1,0,0,1,0,0)" xlink:href="#New_Gradient_Swatch_3"/>
    <linearGradient id="New_Gradient_Swatch_3-6" data-name="New Gradient Swatch 3" x1="571.6115" y1="163.0218" x2="748.3884" y2="339.7987" gradientTransform="matrix(1,0,0,1,0,0)" xlink:href="#New_Gradient_Swatch_3"/>
    <linearGradient id="New_Gradient_Swatch_3-7" data-name="New Gradient Swatch 3" x1="960" y1="16.9608" x2="960" y2="266.9608" gradientTransform="matrix(1,0,0,1,0,0)" xlink:href="#New_Gradient_Swatch_3"/>
    <linearGradient id="New_Gradient_Swatch_3-8" data-name="New Gradient Swatch 3" x1="1348.3884" y1="163.0218" x2="1171.6115" y2="339.7987" gradientTransform="matrix(1,0,0,1,0,0)" xlink:href="#New_Gradient_Swatch_3"/>
    <linearGradient id="New_Gradient_Swatch_3-9" data-name="New Gradient Swatch 3" x1="1648.3884" y1="230.411" x2="1471.6115" y2="53.6341" gradientTransform="matrix(1,0,0,1,0,0)" xlink:href="#New_Gradient_Swatch_3"/>
  </defs>
  <path class="cls-7" d="m982.5533,129.7069h-1.8782v-2.4842c0-1.3924-1.0318-2.5243-2.2989-2.5243h-1.4575v-9.0003c0-1.6303-1.0493-3.0076-2.5043-3.526v-6.7364c0-1.8081-1.4675-3.2781-3.2756-3.2781h-5.9676c-1.8081,0-3.2781,1.47-3.2781,3.2781v9.2382c-1.4525.5184-2.5043,1.8957-2.5043,3.526v1.49h-2.5043v-16.7559c0-1.5351-1.0793-2.7647-2.5043-3.1228v-3.9116c0-.6912-.5584-1.2521-1.2521-1.2521-.6912,0-1.2521.561-1.2521,1.2521v3.7564h-9.2432c-1.8081,0-3.2781,1.47-3.2781,3.2781v26.7705h-1.9082c-.6937,0-1.2521.5584-1.2521,1.2521v.0025c0,.6912.5584,1.2521,1.2521,1.2521h45.1066c.6937,0,1.2521-.561,1.2521-1.2521,0-.6586-.5359-1.2521-1.2521-1.2521m-10.6431-17.5348c-1.4525.5184-2.5043,1.8957-2.5043,3.526v9.0003h-2.5043v-6.4985c0-1.6303-1.0493-3.0076-2.5043-3.526v-9.2382c0-.4257.3481-.7738.7738-.7738h5.9676c.4257,0,.7713.3481.7713.7738v6.7364Zm-30.051-9.2382c0-.4257.3481-.7738.7738-.7738h10.9761c.4257,0,.7713.3481.7713.7738v26.773h-12.5213v-26.773Zm30.051,16.7559h2.5043v5.0085h-2.5043v-5.0085Zm1.2521-5.0085c.6912,0,1.2521.561,1.2521,1.2521v1.2521h-2.5043v-1.2521c0-.6912.5635-1.2521,1.2521-1.2521m-10.017,2.5043c.6912,0,1.2521.561,1.2521,1.2521v1.2521h-2.5043v-1.2521c0-.6912.5635-1.2521,1.2521-1.2521m-3.7564,7.5128h-2.5043v-2.5043h2.5043v2.5043Zm-2.5043,2.5043h2.5043v2.5043h-2.5043v-2.5043Zm5.0085-5.0085h2.5043v7.5128h-2.5043v-7.5128Zm5.0085,5.0085h11.2691v2.5043h-11.2691v-2.5043Z"/>
  <line class="cls-8" x1="1377.146" y1="292.1716" x2="1441.6527" y2="105.0391"/>
  <line class="cls-11" x1="1077.9636" y1="103.6938" x2="1143.1832" y2="293.0356"/>
  <line class="cls-9" x1="841.9842" y1="103.8197" x2="777.8592" y2="289.9457"/>
  <line class="cls-10" x1="542.2724" y1="290.4268" x2="478.0457" y2="103.9583"/>
  <path class="cls-5" d="m360,21.0228c32.3203,0,62.7061,12.5859,85.5601,35.4399,22.8538,22.8535,35.4399,53.2393,35.4399,85.5596s-12.5862,62.7065-35.4399,85.5601c-22.854,22.854-53.2397,35.4399-85.5601,35.4399s-62.7061-12.5859-85.5601-35.4399c-22.8538-22.8535-35.4399-53.2393-35.4399-85.5601s12.5862-62.7061,35.4399-85.5596c22.854-22.854,53.2397-35.4399,85.5601-35.4399m0-4c-31.9902,0-63.9807,12.2036-88.3884,36.6113-48.8154,48.8154-48.8154,127.9614,0,176.7769,24.4077,24.4077,56.3982,36.6113,88.3884,36.6113s63.9807-12.2036,88.3884-36.6113c48.8154-48.8154,48.8154-127.9614,0-176.7769-24.4077-24.4077-56.3982-36.6113-88.3884-36.6113h0Z"/>
  <path class="cls-4" d="m660,130.4105c32.3203,0,62.7061,12.5859,85.5601,35.4399,22.8538,22.8535,35.4399,53.2393,35.4399,85.5596s-12.5862,62.7061-35.4399,85.5601c-22.854,22.854-53.2397,35.4399-85.5601,35.4399s-62.7061-12.5859-85.5601-35.4399c-22.8538-22.854-35.4399-53.2397-35.4399-85.5601s12.5862-62.7061,35.4399-85.5596c22.854-22.854,53.2397-35.4399,85.5601-35.4399m0-4c-31.9902,0-63.9807,12.2036-88.3884,36.6113-48.8154,48.8154-48.8154,127.9609,0,176.7769,24.4077,24.4077,56.3982,36.6113,88.3884,36.6113s63.9807-12.2036,88.3884-36.6113c48.8154-48.8159,48.8154-127.9614,0-176.7769-24.4077-24.4077-56.3982-36.6113-88.3884-36.6113h0Z"/>
  <path class="cls-3" d="m960,20.9608c32.3203,0,62.7061,12.5864,85.5598,35.4399,22.854,22.854,35.4402,53.2397,35.4402,85.5601s-12.5862,62.7061-35.4402,85.5596c-22.8538,22.854-53.2395,35.4404-85.5598,35.4404s-62.7061-12.5864-85.5598-35.4404c-22.854-22.8535-35.4402-53.2393-35.4402-85.5596s12.5862-62.7061,35.4402-85.5601c22.8538-22.8535,53.2395-35.4399,85.5598-35.4399m0-4c-69.0356,0-125,55.9644-125,125s55.9644,125,125,125,125-55.9648,125-125-55.9644-125-125-125h0Z"/>
  <path class="cls-2" d="m1260,130.4105c32.3203,0,62.7061,12.5859,85.5601,35.4399,22.8538,22.8535,35.4399,53.2393,35.4399,85.5596s-12.5862,62.7061-35.4399,85.5601c-22.854,22.854-53.2397,35.4399-85.5601,35.4399s-62.7061-12.5859-85.5601-35.4399c-22.8538-22.854-35.4399-53.2397-35.4399-85.5601s12.5862-62.7061,35.4399-85.5596c22.854-22.854,53.2397-35.4399,85.5601-35.4399m0-4c-31.9902,0-63.9807,12.2036-88.3884,36.6113-48.8154,48.8154-48.8154,127.9609,0,176.7769,24.4077,24.4077,56.3982,36.6113,88.3884,36.6113s63.9807-12.2036,88.3884-36.6113c48.8154-48.8159,48.8154-127.9614,0-176.7769-24.4077-24.4077-56.3982-36.6113-88.3884-36.6113h0Z"/>
  <path class="cls-1" d="m1560,21.0228c32.3203,0,62.7061,12.5859,85.5601,35.4399,22.8538,22.8535,35.4399,53.2393,35.4399,85.5596s-12.5862,62.7065-35.4399,85.5601c-22.854,22.854-53.2397,35.4399-85.5601,35.4399s-62.7061-12.5859-85.5601-35.4399c-22.8538-22.8535-35.4399-53.2393-35.4399-85.5601s12.5862-62.7061,35.4399-85.5596c22.854-22.854,53.2397-35.4399,85.5601-35.4399m0-4c-31.9902,0-63.9807,12.2036-88.3884,36.6113-48.8154,48.8154-48.8154,127.9614,0,176.7769,24.4077,24.4077,56.3982,36.6113,88.3884,36.6113s63.9807-12.2036,88.3884-36.6113c48.8154-48.8154,48.8154-127.9614,0-176.7769-24.4077-24.4077-56.3982-36.6113-88.3884-36.6113h0Z"/>
  <g>
    <path class="cls-7" d="m303.3911,176.3822l2.2676-1.6196c1.4399,2.2676,3.4917,3.6355,6.5874,3.6355,2.8433,0,5.147-1.5837,5.147-4.2114,0-2.2319-1.3677-3.7437-3.7075-4.6436l-3.7793-1.4397c-3.9595-1.512-5.6514-3.4917-5.6514-6.9832,0-3.9956,3.3838-6.5513,7.811-6.5513,3.2397,0,5.8672,1.5479,7.2349,3.4917l-2.1235,1.7278c-1.332-1.584-2.8794-2.6277-5.2192-2.6277-2.7715,0-4.9673,1.5837-4.9673,3.9233s1.2236,3.3835,3.8154,4.3916l3.3833,1.2957c3.8159,1.4758,5.9395,3.5637,5.9395,7.3433,0,4.2834-3.3115,6.875-7.9189,6.875-4.2476,0-7.667-2.0518-8.8188-4.6074Z"/>
    <path class="cls-7" d="m323.3349,171.5589c0-5.1475,3.9233-9.3589,9.3945-9.3589s9.395,4.2114,9.395,9.3589-3.9233,9.3586-9.395,9.3586-9.3945-4.2114-9.3945-9.3586Zm16.1978,0c0-3.8516-2.6997-7.0193-6.8032-7.0193s-6.8027,3.1677-6.8027,7.0193,2.6997,7.019,6.8027,7.019,6.8032-3.1677,6.8032-7.019Z"/>
    <path class="cls-7" d="m346.518,173.8265v-11.2666h2.52v10.9067c0,3.0955,1.7998,5.1113,4.3911,5.1113,3.0239,0,5.3994-2.6997,5.3994-7.0552v-8.9629h2.5195v17.9978h-2.5195v-3.0237c-1.2598,2.3037-3.4556,3.3835-5.7231,3.3835-3.8154,0-6.5874-2.7715-6.5874-7.0911Z"/>
    <path class="cls-7" d="m367.542,162.5599h2.5195v3.7075c.7559-2.5195,3.0957-3.8875,5.2192-3.8875.4321,0,.8638.0359,1.2959.144v2.6277c-.5039-.1799-.9717-.252-1.5117-.252-2.2319,0-5.0034,2.0156-5.0034,6.623v9.0349h-2.5195v-17.9978Z"/>
    <path class="cls-7" d="m378.2339,171.5589c0-5.1475,3.9238-9.3589,9.395-9.3589,3.7075,0,6.6592,1.9077,8.2432,4.7153l-2.1958,1.2598c-1.0801-2.1597-3.2397-3.6355-6.0474-3.6355-4.1035,0-6.8032,3.1677-6.8032,7.0193s2.6997,7.019,6.8032,7.019c2.8076,0,4.9673-1.4758,6.0474-3.6355l2.1958,1.2598c-1.584,2.8076-4.5356,4.7153-8.2432,4.7153-5.4712,0-9.395-4.2114-9.395-9.3586Z"/>
    <path class="cls-7" d="m398.6816,171.5589c0-5.2195,3.8516-9.3589,9.3228-9.3589,4.6797,0,8.4229,3.3477,8.459,9.1069v.6838h-15.1899c.0361,3.7075,2.7354,6.5872,6.6592,6.5872,2.9517,0,4.7153-1.2598,5.939-3.3835l2.0518,1.3318c-1.5835,2.6997-4.2471,4.3914-7.9907,4.3914-5.6514,0-9.251-4.1753-9.251-9.3586Zm2.8076-1.7998h12.3467c-.4321-3.2397-2.916-5.2195-5.9395-5.2195-2.9878,0-5.7954,1.9438-6.4072,5.2195Z"/>
  </g>
  <g>
    <path class="cls-7" d="m588.7749,266.9806h-8.2791v-2.5918h19.2576v2.5918h-8.2791v22.9651h-2.6995v-22.9651Z"/>
    <path class="cls-7" d="m600.0434,271.9479h2.5195v3.7075c.7559-2.5195,3.0957-3.8875,5.2195-3.8875.4319,0,.8638.0359,1.2957.144v2.6277c-.5039-.1799-.9717-.252-1.5117-.252-2.2317,0-5.0034,2.0156-5.0034,6.623v9.0349h-2.5195v-17.9978Z"/>
    <path class="cls-7" d="m610.7712,280.9469c0-5.1475,3.8516-9.3589,8.9629-9.3589,2.7717,0,5.3633,1.4397,6.6592,3.3835v-3.0237h2.5198v17.9978h-2.5198v-3.0237c-1.2959,1.9438-3.8875,3.3835-6.6592,3.3835-5.1113,0-8.9629-4.2114-8.9629-9.3586Zm15.8381,0c0-3.8877-2.6997-7.0193-6.6233-7.0193s-6.623,3.1316-6.623,7.0193,2.6997,7.019,6.623,7.019,6.6233-3.1316,6.6233-7.019Z"/>
    <path class="cls-7" d="m635.1067,271.9479h2.5195v3.0237c1.2959-2.3757,3.5637-3.3835,5.9033-3.3835,3.9236,0,6.7671,2.6997,6.7671,7.0911v11.2666h-2.5195v-10.9067c0-3.1675-1.8718-5.1113-4.5354-5.1113-3.1677,0-5.6155,2.5918-5.6155,7.0552v8.9629h-2.5195v-17.9978Z"/>
    <path class="cls-7" d="m654.4748,285.8783l2.2676-.936c.6121,1.9797,2.6997,3.0957,4.7515,3.0957,1.9438,0,3.4915-1.0078,3.4915-2.7717,0-1.4397-.8999-2.3757-3.3835-3.1675l-1.9436-.6121c-2.8438-.8999-4.3196-2.6636-4.3196-5.1113,0-3.0237,2.6638-4.7874,6.0112-4.7874,2.6277,0,4.7156,1.1519,5.8313,3.1675l-2.0156,1.26c-.7561-1.1519-2.0518-2.1958-3.9597-2.1958-1.6917,0-3.3474.9719-3.3474,2.4478,0,1.2598.6838,2.2317,2.8076,2.9155l2.0518.6479c3.0596.9719,4.7874,2.5918,4.7874,5.2195,0,3.4194-2.5557,5.2551-6.0471,5.2551-3.2397,0-6.0474-1.4758-6.9832-4.4272Z"/>
    <path class="cls-7" d="m672.2944,271.9479h2.5195v3.0237c1.2959-1.9438,3.8877-3.3835,6.6592-3.3835,5.1113,0,8.9629,4.2114,8.9629,9.3589s-3.8516,9.3586-8.9629,9.3586c-2.7715,0-5.3633-1.4397-6.6592-3.3835v10.5466h-2.5195v-25.5208Zm15.55,8.999c0-3.8877-2.6997-7.0193-6.6233-7.0193s-6.623,3.1316-6.623,7.0193,2.6995,7.019,6.623,7.019,6.6233-3.1316,6.6233-7.019Z"/>
    <path class="cls-7" d="m693.6423,280.9469c0-5.1475,3.9236-9.3589,9.3948-9.3589s9.395,4.2114,9.395,9.3589-3.9236,9.3586-9.395,9.3586-9.3948-4.2114-9.3948-9.3586Zm16.198,0c0-3.8516-2.6997-7.0193-6.8032-7.0193s-6.803,3.1677-6.803,7.0193,2.6997,7.019,6.803,7.019,6.8032-3.1677,6.8032-7.019Z"/>
    <path class="cls-7" d="m717.1137,271.9479h2.5195v3.7075c.7559-2.5195,3.0957-3.8875,5.2195-3.8875.4319,0,.8638.0359,1.2957.144v2.6277c-.5039-.1799-.9717-.252-1.5117-.252-2.2317,0-5.0034,2.0156-5.0034,6.623v9.0349h-2.5195v-17.9978Z"/>
    <path class="cls-7" d="m731.2971,284.9422v-10.6187h-3.8516v-2.3757h3.8516v-5.0034h2.5195v5.0034h5.2554v2.3757h-5.2554v10.4028c0,2.3037,1.0801,3.0596,2.9878,3.0596.72,0,1.6917-.1799,2.2676-.396v2.2678c-.7559.2878-1.6558.4678-2.6636.4678-2.9158,0-5.1113-1.6558-5.1113-5.1833Z"/>
  </g>
  <path class="cls-7" d="m682.7184,219.2106h-15.1993c-1.367,0-2.4793,1.111-2.4793,2.4777v15.1834c0,.9127.5211,1.679,1.2599,2.1082v2.9111c0,.6956.5635,1.2585,1.2599,1.2585s1.2599-.5629,1.2599-1.2585v-2.5441h12.5994v2.5441c0,.6956.5635,1.2585,1.2599,1.2585s1.2599-.5629,1.2599-1.2585v-2.9113c.739-.4291,1.2599-1.1955,1.2599-2.1081v-15.1834c0-1.3667-1.1123-2.4777-2.4805-2.4777Zm-15.0864,17.6609c-.0252-.0015-.0466-.0146-.0723-.0146h0l-.0135-5.0611,15.1329-.0393v5.0734l-15.0471.0416Zm15.0471-15.1832v7.5905h-15.1396l-.0203-7.5511,15.1599-.0393Zm-11.34,11.3935c-.6958,0-1.2599.5635-1.2599,1.2585s.5641,1.2585,1.2599,1.2585,1.2599-.5635,1.2599-1.2585-.564-1.2585-1.2599-1.2585Zm7.5597,0c-.6958,0-1.2599.5635-1.2599,1.2585s.5641,1.2585,1.2599,1.2585,1.2599-.5635,1.2599-1.2585-.564-1.2585-1.2599-1.2585Zm-33.6243,2.1694c.504.4725,1.3072.4489,1.7796-.0551s.4488-1.3072-.0551-1.7796l-6.9612-6.536c-.7009-.6537-.4409-1.8192.4725-2.1183l15.7099-5.0792v13.3869c0,.6929.5669,1.2599,1.2599,1.2599s1.2599-.5671,1.2599-1.2599v-13.3869l3.9083,1.2636c.1266-.871.474-1.6628.99-2.3283l-4.9929-1.6128c-.7559-.2441-1.5669-.2441-2.3309,0l-11.4339,3.6932v-9.048c0-.693.5669-1.2599,1.2599-1.2599h22.679c.6929,0,1.2599.5669,1.2599,1.2599v5.0127h2.5199v-5.0127c0-2.0868-1.6931-3.7798-3.7798-3.7798h-3.7798v-1.2599c0-2.0868-1.6931-3.7798-3.7798-3.7798h-7.5597c-2.0868,0-3.7798,1.6931-3.7798,3.7798v1.2599h-3.7798c-2.0868,0-3.7798,1.6931-3.7798,3.7798v9.8669l-2.6223.8505c-2.7403.8819-3.5199,4.3861-1.4253,6.3548l6.9612,6.5281Zm7.1659-28.6401c0-.693.5669-1.2599,1.2599-1.2599h7.5597c.6929,0,1.2599.5669,1.2599,1.2599v1.2599h-10.0796v-1.2599Zm11.718,36.4424c-2.025-.2287-3.84-1.1411-5.1191-2.0145-.622-.4253-1.1575-.8504-1.5591-1.2047-.4096.3544-.9371.7795-1.5592,1.2047-1.4725,1.0002-3.6145,2.1105-6.0004,2.1105s-4.5358-1.1103-6.0006-2.1105c-.622-.4253-1.1575-.8504-1.5591-1.2047-.4096.3544-.9371.7795-1.5592,1.2047-1.1734.8033-2.7877,1.6695-4.6067,1.9845-.7638.1338-1.3938-.504-1.3938-1.2758,0-.6141.504-1.1103,1.1181-1.2284,1.2521-.2519,2.457-.8741,3.4648-1.5592.7718-.5275,1.4174-1.1025,2.0396-1.7244.5197-.5119,1.3544-.5119,1.8742,0,.622.622,1.2756,1.2047,2.0394,1.7244,1.2993.8899,2.9373,1.6695,4.5831,1.6695s3.2758-.7875,4.583-1.6695c.7718-.5275,1.4174-1.1025,2.0396-1.7244.5119-.5119,1.3465-.5119,1.8662,0,.63.622,1.2758,1.1969,2.0474,1.7244,1.0658.7299,2.3624,1.3539,3.7017,1.5649v2.5285Z"/>
  <g>
    <path class="cls-7" d="m894.5703,155.0008h8.3511c4.6792,0,7.5591,2.6997,7.5591,6.8752,0,3.8875-2.52,6.5151-6.6592,6.8391l10.0786,11.8425h-3.5635l-10.1147-11.8784h-2.9155v11.8784h-2.7358v-25.5569Zm8.0269,11.1587c3.2397,0,5.1113-1.4399,5.1113-4.2834s-1.8716-4.3196-5.1113-4.3196h-5.291v8.603h5.291Z"/>
    <path class="cls-7" d="m914.8022,171.5589c0-5.2195,3.8516-9.3589,9.3228-9.3589,4.6797,0,8.4229,3.3477,8.459,9.1069v.6838h-15.1899c.0361,3.7075,2.7354,6.5872,6.6592,6.5872,2.9517,0,4.7153-1.2598,5.939-3.3835l2.0518,1.3318c-1.5835,2.6997-4.2471,4.3914-7.9907,4.3914-5.6514,0-9.251-4.1753-9.251-9.3586Zm2.8076-1.7998h12.3467c-.4321-3.2397-2.916-5.2195-5.9395-5.2195-2.9878,0-5.7954,1.9438-6.4072,5.2195Z"/>
    <path class="cls-7" d="m938.4179,164.9357h-3.8516v-2.3757h3.8516v-4.0315c0-3.5276,2.1597-5.1833,5.0752-5.1833,1.0078,0,1.9438.1799,2.6997.468v2.2678c-.5757-.2161-1.5835-.396-2.3037-.396-1.9077,0-2.9517.7559-2.9517,3.0596v3.8154h5.2554v2.3757h-5.2554v15.6221h-2.5195v-15.6221Zm10.6904-9.6829c0-1.0437.8643-1.9077,1.9438-1.9077,1.0439,0,1.8721.864,1.8721,1.9077s-.8281,1.908-1.8721,1.908c-1.0796,0-1.9438-.864-1.9438-1.908Zm.6479,7.3071h2.52v17.9978h-2.52v-17.9978Z"/>
    <path class="cls-7" d="m958.4697,162.5599h2.5195v3.0237c1.2959-2.3757,3.5635-3.3835,5.9033-3.3835,3.9233,0,6.7671,2.6997,6.7671,7.0911v11.2666h-2.5195v-10.9067c0-3.1675-1.8721-5.1113-4.5356-5.1113-3.1675,0-5.6152,2.5918-5.6152,7.0552v8.9629h-2.5195v-17.9978Z"/>
    <path class="cls-7" d="m978.9174,155.2528c0-1.0437.8638-1.9077,1.9438-1.9077,1.0439,0,1.8716.864,1.8716,1.9077s-.8276,1.908-1.8716,1.908c-1.0801,0-1.9438-.864-1.9438-1.908Zm.6479,7.3071h2.5195v17.9978h-2.5195v-17.9978Z"/>
    <path class="cls-7" d="m988.2773,162.5599h2.5195v3.0237c1.2959-2.3757,3.5635-3.3835,5.9033-3.3835,3.9233,0,6.7671,2.6997,6.7671,7.0911v11.2666h-2.5195v-10.9067c0-3.1675-1.8721-5.1113-4.5356-5.1113-3.1675,0-5.6152,2.5918-5.6152,7.0552v8.9629h-2.5195v-17.9978Z"/>
    <path class="cls-7" d="m1008.5092,184.5172l1.9795-1.6917c1.4038,1.9436,3.4917,3.2754,6.5151,3.2754,3.0957,0,6.3716-1.8716,6.3716-6.623v-2.3037c-1.2959,1.9438-3.8159,3.3835-6.5874,3.3835-5.1113,0-8.8906-4.0315-8.8906-9.179s3.7793-9.1787,8.8906-9.1787c2.7715,0,5.2915,1.4397,6.5874,3.3835v-3.0237h2.5195v17.062c0,5.8672-3.8877,8.8188-8.8911,8.8188-4.1392,0-7.127-1.8718-8.4946-3.9236Zm15.082-13.1384c0-3.8875-2.6274-6.8391-6.5513-6.8391s-6.5513,2.9517-6.5513,6.8391,2.6279,6.8394,6.5513,6.8394,6.5513-2.9517,6.5513-6.8394Z"/>
  </g>
  <g>
    <path class="cls-7" d="m1160.5874,285.7699l2.2676-1.6196c1.4399,2.2676,3.4917,3.6355,6.5874,3.6355,2.8433,0,5.147-1.5837,5.147-4.2114,0-2.2319-1.3677-3.7437-3.7075-4.6436l-3.7793-1.4397c-3.9595-1.512-5.6514-3.4917-5.6514-6.9832,0-3.9956,3.3838-6.5513,7.811-6.5513,3.2397,0,5.8672,1.5479,7.2349,3.4917l-2.1235,1.7278c-1.332-1.584-2.8794-2.6277-5.2192-2.6277-2.7715,0-4.9673,1.5837-4.9673,3.9233s1.2236,3.3835,3.8154,4.3916l3.3833,1.2957c3.8159,1.4758,5.9395,3.5637,5.9395,7.3433,0,4.2834-3.3115,6.875-7.9189,6.875-4.2476,0-7.667-2.0518-8.8188-4.6074Z"/>
    <path class="cls-7" d="m1182.8711,284.942v-10.6187h-3.8516v-2.3757h3.8516v-5.0034h2.5195v5.0034h5.2554v2.3757h-5.2554v10.4028c0,2.3037,1.0801,3.0596,2.9878,3.0596.7202,0,1.6919-.1799,2.2676-.396v2.2678c-.7559.2878-1.6558.4678-2.6636.4678-2.9155,0-5.1113-1.6558-5.1113-5.1833Z"/>
    <path class="cls-7" d="m1192.9873,280.9466c0-5.1475,3.9238-9.3589,9.395-9.3589s9.395,4.2114,9.395,9.3589-3.9238,9.3586-9.395,9.3586-9.395-4.2114-9.395-9.3586Zm16.1982,0c0-3.8516-2.6997-7.0193-6.8032-7.0193s-6.8032,3.1677-6.8032,7.0193,2.6997,7.019,6.8032,7.019,6.8032-3.1677,6.8032-7.019Z"/>
    <path class="cls-7" d="m1216.4589,271.9476h2.5195v3.7075c.7559-2.5195,3.0957-3.8875,5.2192-3.8875.4321,0,.8638.0359,1.2959.144v2.6277c-.5039-.1799-.9717-.252-1.5117-.252-2.2319,0-5.0034,2.0156-5.0034,6.623v9.0349h-2.5195v-17.9978Z"/>
    <path class="cls-7" d="m1227.187,280.9466c0-5.2195,3.8516-9.3589,9.3228-9.3589,4.6797,0,8.4229,3.3477,8.459,9.1069v.6838h-15.1899c.0361,3.7075,2.7354,6.5872,6.6592,6.5872,2.9517,0,4.7153-1.2598,5.939-3.3835l2.0518,1.3318c-1.5835,2.6997-4.2471,4.3914-7.9907,4.3914-5.6514,0-9.251-4.1753-9.251-9.3586Zm2.8076-1.7998h12.3467c-.4321-3.2397-2.916-5.2195-5.9395-5.2195-2.9878,0-5.7954,1.9438-6.4072,5.2195Z"/>
    <path class="cls-7" d="m1261.205,264.3885h2.4116l-13.8945,29.5164h-2.4116l13.8945-29.5164Z"/>
    <path class="cls-7" d="m1270.0258,286.9217v3.0237h-2.5195v-26.9966h2.5195v12.0225c1.2959-1.9438,3.8877-3.3835,6.6592-3.3835,5.1113,0,8.9629,4.2114,8.9629,9.3589s-3.8516,9.3586-8.9629,9.3586c-2.7715,0-5.3633-1.4397-6.6592-3.3835Zm13.0303-5.9751c0-3.8877-2.6997-7.0193-6.623-7.0193s-6.623,3.1316-6.623,7.0193,2.6992,7.019,6.623,7.019,6.623-3.1316,6.623-7.019Z"/>
    <path class="cls-7" d="m1290.3296,262.9488h2.5195v26.9966h-2.5195v-26.9966Z"/>
    <path class="cls-7" d="m1297.5654,280.9466c0-5.2195,3.8516-9.3589,9.3228-9.3589,4.6797,0,8.4229,3.3477,8.459,9.1069v.6838h-15.1899c.0361,3.7075,2.7354,6.5872,6.6592,6.5872,2.9517,0,4.7153-1.2598,5.939-3.3835l2.0518,1.3318c-1.5835,2.6997-4.2471,4.3914-7.9907,4.3914-5.6514,0-9.251-4.1753-9.251-9.3586Zm2.8076-1.7998h12.3467c-.4321-3.2397-2.916-5.2195-5.9395-5.2195-2.9878,0-5.7954,1.9438-6.4072,5.2195Z"/>
    <path class="cls-7" d="m1319.9926,271.9476h2.5195v3.0237c1.2959-2.3757,3.564-3.3835,5.9033-3.3835,3.9238,0,6.7671,2.6997,6.7671,7.0911v11.2666h-2.5195v-10.9067c0-3.1675-1.8716-5.1113-4.5352-5.1113-3.168,0-5.6157,2.5918-5.6157,7.0552v8.9629h-2.5195v-17.9978Z"/>
    <path class="cls-7" d="m1339.5766,280.9466c0-5.1475,3.8516-9.3589,8.9629-9.3589,2.772,0,5.3633,1.4397,6.6592,3.3835v-12.0225h2.52v26.9966h-2.52v-3.0237c-1.2959,1.9438-3.8872,3.3835-6.6592,3.3835-5.1113,0-8.9629-4.2114-8.9629-9.3586Zm15.8384,0c0-3.8877-2.6997-7.0193-6.6235-7.0193s-6.623,3.1316-6.623,7.0193,2.6997,7.019,6.623,7.019,6.6235-3.1316,6.6235-7.019Z"/>
  </g>
  <g>
    <path class="cls-7" d="m1260.4884,205.4568c-.3151-.1346-.6617-.1346-.9768,0l-20.6556,8.7441c-.9375.396-1.544,1.3148-1.544,2.3365v25.353c0,.697-.5672,1.2673-1.2604,1.2673s-1.2604-.5703-1.2604-1.2673v-25.353c0-2.0434,1.2132-3.881,3.0881-4.673l20.6556-8.7441c.9375-.396,1.9931-.396,2.9384,0l20.6477,8.7441c1.867.792,3.0881,2.6296,3.0881,4.673v25.353c0,.697-.5672,1.2673-1.2604,1.2673s-1.2604-.5703-1.2604-1.2673v-25.353c0-1.0217-.6066-1.9405-1.544-2.3365l-20.6556-8.7441Z"/>
    <path class="cls-7" d="m1265.3583,222.3859c-.987-3.7935-4.4114-6.616-8.5094-6.616-4.8645,0-8.8231,3.9586-8.8231,8.8231,0,4.098,2.8225,7.5224,6.616,8.5094.987,3.7935,4.4114,6.616,8.5094,6.616,4.8645,0,8.8231-3.9586,8.8231-8.8231,0-4.098-2.8225-7.5224-6.616-8.5094Zm-14.8116,2.2072c0-3.4761,2.8262-6.3022,6.3022-6.3022,2.5995,0,4.8339,1.5816,5.7963,3.8326-4.4545.2583-8.0077,3.8115-8.266,8.266-2.251-.9624-3.8326-3.1968-3.8326-5.7963Zm12.6045,12.6045c-2.5995,0-4.8339-1.5816-5.7963-3.8326,4.4545-.2583,8.0077-3.8115,8.266-8.266,2.251.9624,3.8326,3.1968,3.8326,5.7963,0,3.4761-2.8262,6.3022-6.3022,6.3022Z"/>
  </g>
  <g>
    <path class="cls-7" d="m1505.3881,155.0008h6.9829c8.0273,0,13.7505,5.3994,13.7505,12.7786s-5.7231,12.7783-13.7505,12.7783h-6.9829v-25.5569Zm6.9829,22.9653c6.6235,0,10.979-4.2837,10.979-10.1868s-4.3555-10.1868-10.979-10.1868h-4.2471v20.3735h4.2471Z"/>
    <path class="cls-7" d="m1529.4721,171.5589c0-5.2195,3.8516-9.3589,9.3228-9.3589,4.6797,0,8.4229,3.3477,8.459,9.1069v.6838h-15.1899c.0361,3.7075,2.7354,6.5872,6.6592,6.5872,2.9517,0,4.7153-1.2598,5.939-3.3835l2.0518,1.3318c-1.5835,2.6997-4.2471,4.3914-7.9907,4.3914-5.6514,0-9.251-4.1753-9.251-9.3586Zm2.8076-1.7998h12.3467c-.4321-3.2397-2.916-5.2195-5.9395-5.2195-2.9878,0-5.7954,1.9438-6.4072,5.2195Z"/>
    <path class="cls-7" d="m1551.8994,153.5611h2.5195v26.9966h-2.5195v-26.9966Z"/>
    <path class="cls-7" d="m1559.9633,155.2528c0-1.0437.8638-1.9077,1.9434-1.9077,1.0439,0,1.8721.864,1.8721,1.9077s-.8281,1.908-1.8721,1.908c-1.0796,0-1.9434-.864-1.9434-1.908Zm.6479,7.3071h2.5195v17.9978h-2.5195v-17.9978Z"/>
    <path class="cls-7" d="m1566.5151,162.5599h2.8076l6.5869,14.2903,6.5874-14.2903h2.8433l-8.4229,17.9978h-1.9795l-8.4229-17.9978Z"/>
    <path class="cls-7" d="m1586.9267,171.5589c0-5.2195,3.8516-9.3589,9.3228-9.3589,4.6797,0,8.4229,3.3477,8.459,9.1069v.6838h-15.1899c.0361,3.7075,2.7354,6.5872,6.6592,6.5872,2.9517,0,4.7153-1.2598,5.939-3.3835l2.0518,1.3318c-1.5835,2.6997-4.2471,4.3914-7.9907,4.3914-5.6514,0-9.251-4.1753-9.251-9.3586Zm2.8076-1.7998h12.3467c-.4321-3.2397-2.916-5.2195-5.9395-5.2195-2.9878,0-5.7954,1.9438-6.4072,5.2195Z"/>
    <path class="cls-7" d="m1609.354,162.5599h2.5195v3.7075c.7559-2.5195,3.0957-3.8875,5.2197-3.8875.4316,0,.8638.0359,1.2954.144v2.6277c-.5039-.1799-.9717-.252-1.5117-.252-2.2314,0-5.0034,2.0156-5.0034,6.623v9.0349h-2.5195v-17.9978Z"/>
  </g>
  <path class="cls-7" d="m380.2368,131.1364h-20.2595l.0278-23.6821c.7032.1492,1.4039.2378,2.0945.2378,1.5582,0,3.081-.3086,4.576-.6122,2.3753-.4832,4.6115-.9359,6.7591-.0683.3845.1619.8297.1088,1.1813-.1214.3491-.2378.559-.6299.559-1.0498v-10.1184c0-.5135-.3111-.979-.7918-1.1712-2.8407-1.156-5.5727-.602-8.2085-.0708-2.1552.4401-4.1941.8069-6.1545.2277v-.2479c0-.7007-.5641-1.2673-1.2623-1.2673h-.0025c-.6956,0-1.2648.5641-1.2648,1.2623l-.043,36.6816h-17.6844c-.7007,0-1.2648.5641-1.2648,1.2648,0,.6982.5641,1.2648,1.2648,1.2648h40.4735c.6982,0,1.2648-.5666,1.2648-1.2648,0-.7007-.5666-1.2648-1.2648-1.2648m-20.219-33.7853c2.2918.4806,4.5052.0481,6.6604-.3896,2.0793-.4224,4.0625-.8246,5.9673-.3288v7.5255c-2.2311-.4275-4.3762.0152-6.4707.4402-2.1603.4401-4.2017.7994-6.1646.2226l.0076-7.4699Z"/>
  <path class="cls-7" d="m1572.782,105.8923c0-7.0621-5.72-12.782-12.782-12.782s-12.782,5.72-12.782,12.782c0,1.2462.4314,2.9558,1.3261,5.0649.8708,2.0691,2.0931,4.3139,3.4831,6.5588,2.7242,4.4178,5.9437,8.6439,7.9808,11.1843,2.0291-2.5404,5.2566-6.7665,7.9808-11.1843,1.3821-2.2448,2.6123-4.4977,3.4831-6.5588.8788-2.109,1.3102-3.8186,1.3102-5.0649Zm2.5564,0c0,6.9822-9.3469,19.4127-13.4451,24.5415-.9826,1.2223-2.8041,1.2223-3.7867,0-4.0982-5.1288-13.4451-17.5593-13.4451-24.5415,0-8.4681,6.8703-15.3385,15.3385-15.3385s15.3385,6.8703,15.3385,15.3385Zm-19.1731,0c0,2.1178,1.7168,3.8346,3.8346,3.8346s3.8346-1.7168,3.8346-3.8346-1.7168-3.8346-3.8346-3.8346-3.8346,1.7168-3.8346,3.8346Zm3.8346,6.391c-3.5297,0-6.391-2.8614-6.391-6.391s2.8614-6.391,6.391-6.391,6.391,2.8614,6.391,6.391-2.8614,6.391-6.391,6.391Z"/>
</svg>